<?xml version="1.0" standalone="no"?>
<!DOCTYPE svg PUBLIC "-//W3C//DTD SVG 20010904//EN"
 "http://www.w3.org/TR/2001/REC-SVG-20010904/DTD/svg10.dtd">
<svg version="1.0" xmlns="http://www.w3.org/2000/svg"
 width="512.000000pt" height="512.000000pt" viewBox="0 0 512.000000 512.000000"
 preserveAspectRatio="xMidYMid meet">
<metadata>
Created by potrace 1.11, written by Peter Selinger 2001-2013
</metadata>
<g transform="translate(0.000000,512.000000) scale(0.100000,-0.100000)"
fill="#000000" stroke="none">
<path d="M2385 4394 c-71 -10 -224 -48 -282 -70 -347 -131 -647 -437 -763
-778 -53 -157 -64 -235 -64 -426 0 -153 3 -189 27 -290 47 -205 131 -428 262
-695 126 -257 272 -491 498 -800 194 -264 478 -615 498 -615 13 0 143 145 225
251 179 228 480 668 637 931 188 312 341 676 399 947 19 87 23 136 23 276 0
181 -11 251 -62 410 -109 338 -411 652 -755 785 -136 53 -244 72 -433 75 -99
2 -193 1 -210 -1z m355 -819 l0 -275 278 -2 277 -3 3 -182 2 -183 -280 0 -280
0 0 -275 0 -275 -180 0 -180 0 0 275 0 275 -280 0 -280 0 2 183 3 182 278 3
277 2 0 275 0 275 180 0 180 0 0 -275z"/>
</g>
</svg>
